# xmcd
#
# Track frame offsets:
#	150
#	970
#	15265
#	32685
#	54465
#	73020
#	92205
#	113062
#	132560
#	151705
#	163272
#	179377
#
# Disc length: 2669 seconds
#
# Revision: 1
# Processed by: cddbd v1.4PL0 Copyright (c) Steve Scherf et al.
# Submitted via: CDmax 1.8
#
DISCID=8d0a6b0c
DTITLE=Rick Vito - Lucky Devils
DYEAR=2000
DGENRE=Blues
TTITLE0=Let's Get It (Introduction)
TTITLE1=Voodoo Woman
TTITLE2=Long Black Car
TTITLE3=Bad Girl Blues
TTITLE4=Rhumba Diablo
TTITLE5=Meet Me At Midnite
TTITLE6=World On Fire
TTITLE7=Exotica By Night
TTITLE8=Feels Just Like Home
TTITLE9=Carry It On Home To Rosie
TTITLE10=When The Big One Comes
TTITLE11=Bayou Goodbye
EXTD=
EXTT0=
EXTT1=
EXTT2=
EXTT3=
EXTT4=
EXTT5=
EXTT6=
EXTT7=
EXTT8=
EXTT9=
EXTT10=
EXTT11=
PLAYORDER=
